<?xml version="1.0" encoding="UTF-8"?> <svg xmlns="http://www.w3.org/2000/svg" width="127" height="62" viewBox="0 0 127 62" fill="none"><path fill-rule="evenodd" clip-rule="evenodd" d="M44.3944 13.2344C44.7029 13.1769 45.1261 13.1266 45.6712 13.0907C46.2236 13.0547 46.7759 13.0331 47.3354 13.0331C48.0312 13.0331 48.6624 13.0907 49.2363 13.22C49.8101 13.3422 50.2979 13.5363 50.7068 13.8167C51.1156 14.0898 51.4312 14.442 51.6608 14.8805C51.8831 15.3118 51.9979 15.8437 51.9979 16.4691C51.9979 16.8501 51.9405 17.2023 51.8258 17.5258C51.7038 17.8492 51.5532 18.1368 51.3595 18.3884C51.1587 18.64 50.9363 18.8484 50.6781 19.0137C50.427 19.1791 50.1616 19.2941 49.8962 19.3731C50.2333 19.4091 50.5776 19.4953 50.9291 19.6463C51.2734 19.7901 51.5891 19.9985 51.8688 20.2717C52.1486 20.5376 52.3781 20.8827 52.5503 21.2924C52.7296 21.7021 52.8157 22.1981 52.8157 22.7875C52.8157 23.4992 52.6794 24.103 52.3996 24.599C52.1199 25.095 51.7397 25.4903 51.2591 25.7994C50.7713 26.1085 50.2118 26.3241 49.5591 26.4607C48.9063 26.5973 48.2105 26.662 47.4645 26.662C46.9983 26.662 46.4961 26.6404 45.951 26.5973C45.3987 26.5542 44.8822 26.5039 44.3944 26.4392V13.2344ZM46.2379 24.9871C46.4101 25.0159 46.6253 25.0303 46.8907 25.0446C47.1489 25.059 47.4071 25.0662 47.6654 25.0662C48.1029 25.0662 48.5118 25.0303 48.8991 24.9512C49.2793 24.8793 49.6236 24.7571 49.9105 24.5774C50.2046 24.3977 50.4342 24.1605 50.6063 23.8586C50.7785 23.5639 50.8646 23.1757 50.8646 22.7157C50.8646 22.2628 50.7857 21.8746 50.6279 21.5656C50.47 21.2493 50.2477 21.0049 49.9751 20.8108C49.7025 20.6239 49.3797 20.4873 48.9996 20.4083C48.6194 20.3292 48.2105 20.2861 47.773 20.2861H46.2379V24.9871ZM47.5721 18.7478C48.4042 18.7478 49.0354 18.5681 49.473 18.2015C49.9105 17.8421 50.1329 17.3029 50.1329 16.5769C50.1329 15.8797 49.8962 15.3621 49.4299 15.0171C48.9565 14.6721 48.3253 14.4995 47.5219 14.4995C47.278 14.4995 47.0413 14.5067 46.8189 14.5211C46.5894 14.5355 46.3957 14.5499 46.2379 14.5786V18.7478H47.5721ZM55.068 12.9756C55.1971 12.9541 55.3478 12.9325 55.5127 12.9253C55.6777 12.9109 55.8284 12.9038 55.9575 12.9038C56.0938 12.9038 56.2444 12.9109 56.4094 12.9253C56.5744 12.9325 56.725 12.9541 56.8541 12.9756V23.5926C56.8541 23.9377 56.89 24.2036 56.9474 24.4049C57.0048 24.599 57.0908 24.7499 57.1913 24.8506C57.2989 24.9584 57.4208 25.0231 57.5571 25.0518C57.7005 25.0878 57.8512 25.1022 58.009 25.1022C58.1166 25.1022 58.2385 25.095 58.382 25.0806C58.5183 25.0734 58.6402 25.0518 58.7407 25.0303C58.8482 25.4544 58.9056 25.9216 58.9056 26.4248C58.7335 26.4823 58.5255 26.5254 58.2816 26.5398C58.0377 26.5614 57.8153 26.5685 57.6073 26.5685C57.2486 26.5685 56.9259 26.5254 56.6174 26.4392C56.3161 26.3529 56.0436 26.2163 55.814 26.0222C55.5845 25.821 55.398 25.5622 55.2689 25.2315C55.1326 24.9009 55.068 24.4912 55.068 23.9952V12.9756ZM65.4977 20.2357C65.4977 19.5097 65.3184 19.0066 64.9526 18.7262C64.5867 18.4459 64.0559 18.3021 63.3601 18.3021C62.9369 18.3021 62.5352 18.338 62.1622 18.4027C61.7892 18.4746 61.4306 18.5609 61.0791 18.6687C60.8424 18.2662 60.7276 17.7846 60.7276 17.2239C61.1436 17.0873 61.6027 16.9795 62.0977 16.9076C62.5998 16.8357 63.0804 16.7998 63.5466 16.7998C64.7589 16.7998 65.6842 17.0801 66.3226 17.6336C66.9539 18.1943 67.2695 19.0856 67.2695 20.3076V26.202C66.8463 26.3026 66.3298 26.4032 65.7201 26.5039C65.1104 26.6117 64.4863 26.662 63.8551 26.662C63.2597 26.662 62.7146 26.6045 62.234 26.4967C61.7534 26.3888 61.3445 26.2091 61.0145 25.9647C60.6774 25.7203 60.4192 25.4041 60.2327 25.0303C60.0533 24.6493 59.9601 24.1893 59.9601 23.6501C59.9601 23.1254 60.0677 22.6582 60.2829 22.2628C60.4981 21.8675 60.785 21.5368 61.1508 21.2708C61.5166 21.0049 61.9327 20.8108 62.4133 20.6814C62.8867 20.552 63.3817 20.4873 63.9053 20.4873C64.2998 20.4873 64.6154 20.5017 64.8665 20.5161C65.1175 20.5376 65.3256 20.5592 65.4977 20.5808V20.2357ZM65.4977 22.0184C65.3184 21.9897 65.0817 21.9681 64.8019 21.9393C64.5222 21.9178 64.2855 21.9034 64.0918 21.9034C63.3386 21.9034 62.7576 22.0472 62.3631 22.3275C61.9686 22.6078 61.7677 23.0391 61.7677 23.6142C61.7677 23.9808 61.8394 24.2683 61.9686 24.4768C62.1048 24.6852 62.2698 24.8434 62.4778 24.9512C62.6787 25.0662 62.9011 25.1309 63.1378 25.1525C63.3817 25.1812 63.6184 25.1956 63.8336 25.1956C64.1133 25.1956 64.4074 25.174 64.7015 25.1453C65.0028 25.1165 65.2682 25.0734 65.4977 25.0087V22.0184ZM76.2431 24.8074C76.3363 24.98 76.4224 25.1956 76.4941 25.4472C76.573 25.706 76.6161 25.9719 76.6232 26.2379C75.9059 26.5182 75.081 26.662 74.1557 26.662C72.5991 26.662 71.4227 26.2163 70.6337 25.3322C69.8375 24.4408 69.4429 23.2476 69.4429 21.7381C69.4429 21.0408 69.5434 20.3939 69.737 19.7901C69.9307 19.1934 70.2248 18.6687 70.605 18.2302C70.9923 17.7917 71.4658 17.4395 72.0396 17.1807C72.6135 16.9292 73.2734 16.7998 74.0337 16.7998C74.543 16.7998 74.9949 16.8285 75.3823 16.8932C75.7696 16.9507 76.1426 17.0514 76.4941 17.1807C76.4941 17.3892 76.4726 17.6336 76.4152 17.9068C76.3578 18.1871 76.2861 18.4243 76.1857 18.6328C75.5903 18.4243 74.9089 18.3237 74.1413 18.3237C73.2017 18.3237 72.4987 18.6328 72.0396 19.2581C71.5734 19.8835 71.3438 20.7102 71.3438 21.7381C71.3438 22.9169 71.6092 23.7723 72.1329 24.3186C72.6565 24.8649 73.3738 25.1381 74.2848 25.1381C74.6506 25.1381 74.9878 25.1165 75.3034 25.0662C75.6118 25.0159 75.9274 24.9296 76.2431 24.8074ZM78.6532 12.9756C78.7895 12.9541 78.9401 12.9325 79.0979 12.9253C79.2629 12.9109 79.4136 12.9038 79.5499 12.9038C79.6861 12.9038 79.8368 12.9109 80.0089 12.9253C80.1739 12.9325 80.3317 12.9541 80.4608 12.9756V26.4392C80.3317 26.4679 80.1739 26.4823 80.0089 26.4967C79.8368 26.511 79.6861 26.5182 79.5499 26.5182C79.4136 26.5182 79.2629 26.511 79.0979 26.4967C78.9401 26.4823 78.7895 26.4679 78.6532 26.4392V12.9756ZM80.9558 21.5584L83.9326 17.0154C84.0904 16.9939 84.2482 16.9723 84.4061 16.9651C84.5639 16.9507 84.7288 16.9435 84.901 16.9435C85.0875 16.9435 85.2597 16.9507 85.4246 16.9651C85.5896 16.9723 85.7546 16.9939 85.9268 17.0154L82.9499 21.429L86.4361 26.4392C86.2639 26.4679 86.0989 26.4823 85.9411 26.4967C85.7833 26.511 85.6183 26.5182 85.4533 26.5182C85.2812 26.5182 85.109 26.511 84.9369 26.4967C84.7647 26.4823 84.5997 26.4679 84.4276 26.4392L80.9558 21.5584ZM92.5978 13.22C92.7771 13.1913 92.9923 13.1697 93.2433 13.141C93.4944 13.1194 93.7526 13.0978 94.0252 13.0763C94.305 13.0619 94.5775 13.0475 94.8501 13.0331C95.1227 13.0188 95.3881 13.0116 95.6463 13.0116C96.3134 13.0116 96.9518 13.0835 97.5544 13.22C98.1569 13.3494 98.6877 13.5866 99.1468 13.9173C99.5987 14.248 99.9645 14.6864 100.23 15.2256C100.503 15.7719 100.632 16.4547 100.632 17.2742C100.632 18.1296 100.488 18.8484 100.201 19.4163C99.9215 19.9841 99.5413 20.4442 99.0751 20.782C98.6016 21.1271 98.0708 21.3715 97.4755 21.508C96.8729 21.6518 96.2704 21.7237 95.6463 21.7237C95.4168 21.7237 95.2088 21.7165 95.0366 21.7093C94.8573 21.7093 94.6636 21.6878 94.4556 21.6662V26.4392C94.1687 26.4751 93.8531 26.4967 93.5231 26.4967C93.3796 26.4967 93.2218 26.4967 93.0568 26.4895C92.899 26.4823 92.7412 26.4679 92.5978 26.4392V13.22ZM94.4556 20.0345C94.6564 20.056 94.8214 20.0704 94.972 20.0848C95.1155 20.0992 95.3307 20.1063 95.6105 20.1063C95.9835 20.1063 96.3636 20.0632 96.7295 19.9841C97.1025 19.9051 97.4396 19.7613 97.7265 19.5529C98.0206 19.3444 98.2573 19.0641 98.4295 18.6975C98.6088 18.338 98.6949 17.8708 98.6949 17.2958C98.6949 16.7926 98.6232 16.3685 98.4654 16.0234C98.3147 15.6856 98.1067 15.4053 97.8413 15.1968C97.5687 14.9955 97.2459 14.8446 96.8729 14.7583C96.4928 14.6721 96.0839 14.6289 95.6463 14.6289C95.1944 14.6289 94.7999 14.6505 94.4556 14.6864V20.0345ZM103.773 22.1837C103.802 23.2117 104.068 23.9592 104.57 24.4408C105.079 24.9153 105.825 25.1525 106.808 25.1525C107.676 25.1525 108.493 25.0015 109.275 24.6996C109.376 24.8793 109.455 25.1022 109.512 25.3681C109.577 25.6269 109.612 25.8929 109.62 26.1444C109.218 26.317 108.78 26.4463 108.3 26.5326C107.819 26.6189 107.281 26.662 106.7 26.662C105.846 26.662 105.115 26.5398 104.505 26.3026C103.895 26.0654 103.393 25.7275 102.999 25.2962C102.604 24.8578 102.317 24.3474 102.131 23.7508C101.951 23.1541 101.858 22.5072 101.858 21.7956C101.858 21.0983 101.944 20.4442 102.124 19.8404C102.303 19.2294 102.568 18.7046 102.934 18.259C103.3 17.8133 103.759 17.4539 104.319 17.1951C104.871 16.9292 105.524 16.7998 106.277 16.7998C106.922 16.7998 107.489 16.9076 107.977 17.1304C108.465 17.3461 108.874 17.6552 109.204 18.0361C109.533 18.4243 109.785 18.8844 109.95 19.4163C110.122 19.9482 110.208 20.5305 110.208 21.1486C110.208 21.3212 110.201 21.5009 110.186 21.6949C110.179 21.8818 110.165 22.0472 110.15 22.1837H103.773ZM108.414 20.818C108.414 20.4801 108.371 20.1495 108.278 19.8404C108.192 19.5241 108.056 19.2509 107.876 19.0209C107.704 18.7909 107.475 18.604 107.202 18.4602C106.93 18.3165 106.6 18.2518 106.227 18.2518C105.481 18.2518 104.914 18.4746 104.519 18.9275C104.118 19.3803 103.881 20.0129 103.795 20.818H108.414ZM117.532 20.2357C117.532 19.5097 117.352 19.0066 116.986 18.7262C116.621 18.4459 116.09 18.3021 115.394 18.3021C114.971 18.3021 114.569 18.338 114.203 18.4027C113.83 18.4746 113.464 18.5609 113.113 18.6687C112.883 18.2662 112.769 17.7846 112.769 17.2239C113.177 17.0873 113.636 16.9795 114.139 16.9076C114.634 16.8357 115.114 16.7998 115.58 16.7998C116.8 16.7998 117.725 17.0801 118.356 17.6336C118.988 18.1943 119.303 19.0856 119.303 20.3076V26.202C118.88 26.3026 118.364 26.4032 117.754 26.5039C117.144 26.6117 116.52 26.662 115.889 26.662C115.293 26.662 114.756 26.6045 114.275 26.4967C113.794 26.3888 113.385 26.2091 113.048 25.9647C112.711 25.7203 112.453 25.4041 112.274 25.0303C112.087 24.6493 112.001 24.1893 112.001 23.6501C112.001 23.1254 112.101 22.6582 112.317 22.2628C112.532 21.8675 112.819 21.5368 113.185 21.2708C113.55 21.0049 113.974 20.8108 114.447 20.6814C114.92 20.552 115.423 20.4873 115.946 20.4873C116.334 20.4873 116.656 20.5017 116.907 20.5161C117.151 20.5376 117.367 20.5592 117.532 20.5808V20.2357ZM117.532 22.0184C117.352 21.9897 117.123 21.9681 116.843 21.9393C116.563 21.9178 116.319 21.9034 116.126 21.9034C115.372 21.9034 114.799 22.0472 114.404 22.3275C114.002 22.6078 113.809 23.0391 113.809 23.6142C113.809 23.9808 113.873 24.2683 114.01 24.4768C114.139 24.6852 114.311 24.8434 114.512 24.9512C114.712 25.0662 114.935 25.1309 115.179 25.1525C115.423 25.1812 115.652 25.1956 115.875 25.1956C116.154 25.1956 116.441 25.174 116.742 25.1453C117.037 25.1165 117.302 25.0734 117.532 25.0087V22.0184ZM122.029 17.0154C122.165 16.9939 122.294 16.9723 122.416 16.9651C122.531 16.9507 122.66 16.9435 122.797 16.9435C122.933 16.9435 123.062 16.9507 123.198 16.9651C123.335 16.9723 123.456 16.9939 123.564 17.0154C123.6 17.2023 123.636 17.4467 123.672 17.7414C123.708 18.0433 123.729 18.2949 123.729 18.5034C123.987 18.0936 124.324 17.727 124.74 17.4251C125.164 17.1161 125.702 16.9651 126.362 16.9651C126.455 16.9651 126.555 16.9651 126.663 16.9723C126.763 16.9795 126.849 16.9867 126.928 17.001C126.95 17.1089 126.971 17.2239 126.979 17.3461C126.993 17.4683 127 17.5977 127 17.7342C127 17.8852 126.993 18.0361 126.971 18.1943C126.95 18.3524 126.935 18.5034 126.907 18.6543C126.814 18.6256 126.713 18.6184 126.605 18.6184H126.362C126.032 18.6184 125.716 18.6615 125.422 18.755C125.121 18.8484 124.855 19.0065 124.611 19.2438C124.375 19.4738 124.188 19.7901 124.045 20.1998C123.908 20.6023 123.837 21.1199 123.837 21.7596V26.4392C123.708 26.4679 123.557 26.4823 123.392 26.4967C123.227 26.511 123.076 26.5182 122.94 26.5182C122.811 26.5182 122.66 26.511 122.495 26.4967C122.33 26.4823 122.173 26.4679 122.029 26.4392V17.0154ZM44.0501 46.2067C44.4518 46.3577 44.8678 46.4871 45.3054 46.5949C45.7501 46.7027 46.281 46.7602 46.9194 46.7602C47.9164 46.7602 48.6624 46.559 49.1574 46.142C49.6451 45.7323 49.8962 45.1788 49.8962 44.4816C49.8962 44.1365 49.846 43.849 49.7384 43.6046C49.638 43.353 49.4802 43.1446 49.2721 42.9649C49.0641 42.7923 48.8059 42.627 48.4974 42.4832C48.189 42.3323 47.8232 42.1742 47.4071 42.0016L46.367 41.5775C46.0155 41.4338 45.6928 41.2684 45.3987 41.0959C45.1046 40.9162 44.8535 40.7006 44.6383 40.4418C44.4303 40.183 44.2581 39.8883 44.1362 39.5505C44.0142 39.2126 43.9569 38.8101 43.9569 38.35C43.9569 37.2359 44.337 36.3589 45.0902 35.7335C45.8434 35.101 46.905 34.7847 48.2679 34.7847C48.8561 34.7847 49.4084 34.835 49.9321 34.9284C50.4557 35.0291 50.9148 35.1513 51.3165 35.3022C51.2591 35.8126 51.1228 36.323 50.9148 36.8261C50.592 36.7039 50.2118 36.5889 49.7743 36.4955C49.3439 36.3948 48.8561 36.3445 48.3038 36.3445C47.5362 36.3445 46.9481 36.5027 46.532 36.8118C46.116 37.128 45.9151 37.5953 45.9151 38.2206C45.9151 38.4794 45.9653 38.7094 46.0658 38.9107C46.1734 39.112 46.3096 39.2845 46.4746 39.4426C46.6468 39.5936 46.8476 39.7302 47.0843 39.8524C47.3139 39.9746 47.5578 40.0896 47.8088 40.183L48.8346 40.5856C49.3224 40.7868 49.7527 40.9881 50.1329 41.2037C50.5131 41.4194 50.8359 41.671 51.1013 41.9585C51.3667 42.246 51.5747 42.5839 51.711 42.9792C51.8545 43.3674 51.9262 43.8274 51.9262 44.3522C51.9262 45.6173 51.4886 46.6093 50.6279 47.3425C49.7599 48.0685 48.5477 48.4351 46.9911 48.4351C46.6109 48.4351 46.2738 48.4207 45.9653 48.392C45.6641 48.3704 45.3771 48.3345 45.1189 48.2841C44.8535 48.2338 44.6024 48.1763 44.3586 48.1044C44.1147 48.0254 43.8636 47.9463 43.6125 47.86C43.6341 47.5941 43.6915 47.3209 43.7704 47.0334C43.8564 46.753 43.9497 46.4799 44.0501 46.2067ZM57.9875 48.4351C57.2558 48.4351 56.6174 48.3057 56.0722 48.0541C55.5199 47.8025 55.068 47.4575 54.7022 47.019C54.3364 46.5805 54.0638 46.0558 53.8845 45.4592C53.7123 44.8554 53.619 44.2084 53.619 43.5112C53.619 42.8139 53.7123 42.1598 53.8845 41.5632C54.0638 40.9593 54.3364 40.4418 54.7022 40.0033C55.068 39.5576 55.5199 39.2126 56.0722 38.9538C56.6174 38.6951 57.2558 38.5657 57.9875 38.5657C58.7191 38.5657 59.3575 38.6951 59.9099 38.9538C60.455 39.2126 60.9141 39.5576 61.2799 40.0033C61.6458 40.4418 61.9112 40.9593 62.0905 41.5632C62.2698 42.1598 62.3559 42.8139 62.3559 43.5112C62.3559 44.2084 62.2698 44.8554 62.0905 45.4592C61.9112 46.0558 61.6458 46.5805 61.2799 47.019C60.9141 47.4575 60.455 47.8025 59.9099 48.0541C59.3575 48.3057 58.7191 48.4351 57.9875 48.4351ZM57.9875 46.9831C58.8267 46.9831 59.4508 46.674 59.8525 46.063C60.2542 45.452 60.455 44.5966 60.455 43.5112C60.455 42.4186 60.2542 41.5703 59.8525 40.9665C59.4508 40.3627 58.8267 40.0536 57.9875 40.0536C57.1482 40.0536 56.5313 40.3627 56.1368 40.9665C55.7351 41.5703 55.5414 42.4186 55.5414 43.5112C55.5414 44.5966 55.7351 45.452 56.1368 46.063C56.5313 46.674 57.1482 46.9831 57.9875 46.9831ZM65.2825 40.219H63.7475C63.6973 40.0249 63.6686 39.7877 63.6686 39.5073C63.6686 39.2342 63.6973 38.997 63.7475 38.7885H65.2825V38.1272C65.2825 36.9627 65.5695 36.0786 66.1505 35.4747C66.7243 34.8637 67.5708 34.5618 68.6754 34.5618C68.9839 34.5618 69.2493 34.5762 69.4788 34.6122C69.7155 34.6409 69.9307 34.684 70.1387 34.7487C70.1172 35.0506 70.0813 35.3166 70.0383 35.5394C69.9953 35.7551 69.9379 35.9851 69.8662 36.2151C69.7442 36.1936 69.6007 36.1648 69.4358 36.1361C69.2708 36.1073 69.0699 36.0857 68.8404 36.0857C68.575 36.0857 68.3311 36.1145 68.1231 36.172C67.9079 36.2295 67.7214 36.3301 67.5708 36.4811C67.4201 36.6392 67.2982 36.8477 67.2193 37.128C67.1332 37.4012 67.0902 37.7534 67.0902 38.1847V38.7885H69.4788C69.5147 39.0329 69.5362 39.2845 69.5362 39.5433C69.5362 39.7733 69.5147 40.0033 69.4788 40.219H67.0902V48.2123C66.9539 48.2338 66.8032 48.2554 66.6383 48.2698C66.4733 48.277 66.3298 48.2841 66.1935 48.2841C66.0572 48.2841 65.9066 48.277 65.7344 48.2698C65.5623 48.2554 65.4116 48.2338 65.2825 48.2123V40.219ZM71.7455 40.2405H70.3252L70.2463 39.9817L73.3882 36.4595H73.5388V38.7885H75.9131C75.9633 38.997 75.9848 39.227 75.9848 39.4858C75.9848 39.6223 75.9776 39.7517 75.9705 39.8739C75.9561 39.9961 75.9346 40.1183 75.9131 40.2405H73.5388V44.5391C73.5388 45.0494 73.5603 45.4592 73.6033 45.7683C73.6464 46.0774 73.7181 46.3074 73.8185 46.4727C73.9261 46.638 74.0624 46.753 74.2418 46.8034C74.4211 46.8609 74.6434 46.8896 74.9089 46.8896C75.1169 46.8896 75.3105 46.8752 75.4899 46.8465C75.6764 46.8106 75.8414 46.7818 75.9848 46.7387C76.0709 46.9903 76.1211 47.2347 76.1426 47.4934C76.157 47.7522 76.1713 47.9822 76.1713 48.1763C75.9274 48.2338 75.6692 48.2841 75.4038 48.3129C75.1312 48.3416 74.8443 48.356 74.543 48.356C73.6679 48.356 72.9793 48.1476 72.4843 47.7163C71.9966 47.285 71.7455 46.5805 71.7455 45.5886V40.2405ZM76.8815 38.7885C77.0536 38.7669 77.2258 38.7454 77.3908 38.731C77.5629 38.7238 77.7135 38.7166 77.8498 38.7166C78.022 38.7166 78.1941 38.7238 78.3735 38.731C78.5456 38.7454 78.7034 38.7669 78.8397 38.7885L80.6617 46.4871L82.7276 38.7885C82.8638 38.7669 83.0073 38.7454 83.1651 38.731C83.3229 38.7238 83.4879 38.7166 83.6601 38.7166C83.8537 38.731 84.0187 38.7382 84.1622 38.7454C84.3056 38.7454 84.4419 38.7669 84.571 38.7885L86.6226 46.3577L88.4445 38.7885C88.5808 38.7669 88.7171 38.7454 88.8462 38.731C88.9825 38.7238 89.126 38.7166 89.2838 38.7166C89.4201 38.7166 89.5707 38.7238 89.7357 38.731C89.9007 38.7454 90.0656 38.7669 90.2378 38.7885L87.4403 48.2123C87.2825 48.2338 87.1247 48.2554 86.9597 48.2698C86.7947 48.277 86.6441 48.2841 86.5078 48.2841C86.3787 48.2841 86.228 48.277 86.0702 48.2698C85.9124 48.2554 85.7546 48.2338 85.5968 48.2123L83.5883 41.0815L81.4866 48.2123C81.3144 48.2338 81.1495 48.2554 80.9845 48.2698C80.8195 48.277 80.6689 48.2841 80.5326 48.2841C80.4035 48.2841 80.2528 48.277 80.0878 48.2698C79.9229 48.2554 79.7722 48.2338 79.6431 48.2123L76.8815 38.7885ZM97.0523 42.0016C97.0523 41.2828 96.8729 40.7796 96.5071 40.4993C96.1413 40.2118 95.6105 40.0752 94.9147 40.0752C94.4915 40.0752 94.0898 40.1111 93.7168 40.1758C93.3438 40.2405 92.9851 40.334 92.6336 40.4418C92.3969 40.0393 92.2821 39.5576 92.2821 38.9898C92.6982 38.8532 93.1573 38.7526 93.6522 38.6807C94.1543 38.6016 94.6349 38.5657 95.094 38.5657C96.3134 38.5657 97.2388 38.846 97.8772 39.4067C98.5084 39.9602 98.824 40.8515 98.824 42.0735V47.975C98.4008 48.0685 97.8843 48.1691 97.2746 48.2769C96.6649 48.3776 96.0408 48.4351 95.4096 48.4351C94.8142 48.4351 94.2691 48.3776 93.7885 48.2698C93.3079 48.1548 92.899 47.9822 92.5691 47.7306C92.2319 47.4862 91.9737 47.1772 91.7872 46.7962C91.6079 46.4152 91.5146 45.9552 91.5146 45.4232C91.5146 44.8913 91.6222 44.4313 91.8374 44.0359C92.0526 43.6334 92.3395 43.3027 92.7054 43.0439C93.0712 42.778 93.4872 42.5839 93.9678 42.4545C94.4412 42.3251 94.9362 42.2604 95.4598 42.2604C95.8543 42.2604 96.17 42.2676 96.421 42.2892C96.6721 42.3035 96.8801 42.3251 97.0523 42.3539V42.0016ZM97.0523 43.7843C96.8729 43.7627 96.6362 43.734 96.3565 43.7124C96.0767 43.6837 95.84 43.6765 95.6463 43.6765C94.8931 43.6765 94.3121 43.8131 93.9176 44.1006C93.5231 44.3809 93.3222 44.805 93.3222 45.3801C93.3222 45.7539 93.394 46.0414 93.5231 46.2499C93.6594 46.4511 93.8244 46.6165 94.0252 46.7243C94.2332 46.8321 94.4484 46.904 94.6923 46.9256C94.9362 46.9471 95.1729 46.9615 95.3881 46.9615C95.6678 46.9615 95.9619 46.9471 96.256 46.9184C96.5573 46.8896 96.8227 46.8393 97.0523 46.7818V43.7843ZM101.55 38.7885C101.679 38.7669 101.808 38.7454 101.93 38.731C102.052 38.7238 102.181 38.7166 102.317 38.7166C102.446 38.7166 102.583 38.7238 102.719 38.731C102.848 38.7454 102.97 38.7669 103.085 38.7885C103.121 38.9754 103.157 39.2126 103.192 39.5145C103.228 39.8164 103.25 40.068 103.25 40.2765C103.501 39.8596 103.838 39.5001 104.261 39.191C104.677 38.8891 105.222 38.731 105.875 38.731C105.976 38.731 106.076 38.7382 106.176 38.7454C106.284 38.7454 106.37 38.7598 106.442 38.7669C106.471 38.882 106.485 38.997 106.499 39.1192C106.514 39.2414 106.514 39.3708 106.514 39.5073C106.514 39.6511 106.506 39.802 106.492 39.9674C106.471 40.1255 106.449 40.2765 106.428 40.4202C106.327 40.3987 106.227 40.3843 106.126 40.3843H105.875C105.545 40.3843 105.237 40.4346 104.936 40.5281C104.641 40.6143 104.369 40.7796 104.132 41.0097C103.895 41.2469 103.709 41.5632 103.565 41.9657C103.429 42.3682 103.357 42.893 103.357 43.5255V48.2123C103.221 48.2338 103.071 48.2554 102.906 48.2698C102.741 48.277 102.597 48.2841 102.461 48.2841C102.324 48.2841 102.181 48.277 102.016 48.2698C101.851 48.2554 101.693 48.2338 101.55 48.2123V38.7885ZM109.419 43.9496C109.447 44.9776 109.713 45.7323 110.215 46.2067C110.724 46.6884 111.47 46.9256 112.453 46.9256C113.321 46.9256 114.139 46.7746 114.92 46.4655C115.021 46.6524 115.1 46.8752 115.157 47.134C115.222 47.4 115.258 47.6588 115.272 47.9175C114.87 48.09 114.426 48.2194 113.945 48.3057C113.464 48.392 112.934 48.4351 112.345 48.4351C111.492 48.4351 110.76 48.3129 110.15 48.0757C109.541 47.8385 109.039 47.5006 108.644 47.0621C108.249 46.6308 107.963 46.1133 107.776 45.5239C107.597 44.9272 107.503 44.2731 107.503 43.5615C107.503 42.8642 107.59 42.2173 107.769 41.6063C107.948 41.0025 108.214 40.4777 108.579 40.0321C108.945 39.5792 109.404 39.227 109.964 38.961C110.516 38.7022 111.169 38.5657 111.922 38.5657C112.568 38.5657 113.134 38.6807 113.622 38.8963C114.11 39.1192 114.519 39.4211 114.849 39.8092C115.179 40.1974 115.43 40.6503 115.595 41.1894C115.767 41.7213 115.853 42.2964 115.853 42.9217C115.853 43.0942 115.846 43.274 115.839 43.4608C115.824 43.6549 115.81 43.8131 115.796 43.9496H109.419ZM114.06 42.5911C114.06 42.246 114.017 41.9226 113.923 41.6063C113.837 41.2972 113.701 41.024 113.522 40.794C113.35 40.5568 113.12 40.3699 112.847 40.2333C112.575 40.0896 112.245 40.0177 111.872 40.0177C111.126 40.0177 110.559 40.2477 110.165 40.7006C109.763 41.1534 109.526 41.786 109.44 42.5911H114.06Z" fill="black"></path><path fill-rule="evenodd" clip-rule="evenodd" d="M44.3944 13.2344C44.7029 13.1769 45.1261 13.1266 45.6712 13.0907C46.2236 13.0547 46.7759 13.0331 47.3354 13.0331C48.0312 13.0331 48.6624 13.0907 49.2363 13.22C49.8101 13.3422 50.2979 13.5363 50.7068 13.8167C51.1156 14.0898 51.4312 14.442 51.6608 14.8805C51.8831 15.3118 51.9979 15.8437 51.9979 16.4691C51.9979 16.8501 51.9405 17.2023 51.8258 17.5258C51.7038 17.8492 51.5532 18.1368 51.3595 18.3884C51.1587 18.64 50.9363 18.8484 50.6781 19.0137C50.427 19.1791 50.1616 19.2941 49.8962 19.3731C50.2333 19.4091 50.5776 19.4953 50.9291 19.6463C51.2734 19.7901 51.5891 19.9985 51.8688 20.2717C52.1486 20.5376 52.3781 20.8827 52.5503 21.2924C52.7296 21.7021 52.8157 22.1981 52.8157 22.7875C52.8157 23.4992 52.6794 24.103 52.3996 24.599C52.1199 25.095 51.7397 25.4903 51.2591 25.7994C50.7713 26.1085 50.2118 26.3241 49.5591 26.4607C48.9063 26.5973 48.2105 26.662 47.4645 26.662C46.9983 26.662 46.4961 26.6404 45.951 26.5973C45.3987 26.5542 44.8822 26.5039 44.3944 26.4392V13.2344ZM46.2379 24.9871C46.4101 25.0159 46.6253 25.0303 46.8907 25.0446C47.1489 25.059 47.4071 25.0662 47.6654 25.0662C48.1029 25.0662 48.5118 25.0303 48.8991 24.9512C49.2793 24.8793 49.6236 24.7571 49.9105 24.5774C50.2046 24.3977 50.4342 24.1605 50.6063 23.8586C50.7785 23.5639 50.8646 23.1757 50.8646 22.7157C50.8646 22.2628 50.7857 21.8746 50.6279 21.5656C50.47 21.2493 50.2477 21.0049 49.9751 20.8108C49.7025 20.6239 49.3797 20.4873 48.9996 20.4083C48.6194 20.3292 48.2105 20.2861 47.773 20.2861H46.2379V24.9871ZM47.5721 18.7478C48.4042 18.7478 49.0354 18.5681 49.473 18.2015C49.9105 17.8421 50.1329 17.3029 50.1329 16.5769C50.1329 15.8797 49.8962 15.3621 49.4299 15.0171C48.9565 14.6721 48.3253 14.4995 47.5219 14.4995C47.278 14.4995 47.0413 14.5067 46.8189 14.5211C46.5894 14.5355 46.3957 14.5499 46.2379 14.5786V18.7478H47.5721ZM55.068 12.9756C55.1971 12.9541 55.3478 12.9325 55.5127 12.9253C55.6777 12.9109 55.8284 12.9038 55.9575 12.9038C56.0938 12.9038 56.2444 12.9109 56.4094 12.9253C56.5744 12.9325 56.725 12.9541 56.8541 12.9756V23.5926C56.8541 23.9377 56.89 24.2036 56.9474 24.4049C57.0048 24.599 57.0908 24.7499 57.1913 24.8506C57.2989 24.9584 57.4208 25.0231 57.5571 25.0518C57.7005 25.0878 57.8512 25.1022 58.009 25.1022C58.1166 25.1022 58.2385 25.095 58.382 25.0806C58.5183 25.0734 58.6402 25.0518 58.7407 25.0303C58.8482 25.4544 58.9056 25.9216 58.9056 26.4248C58.7335 26.4823 58.5255 26.5254 58.2816 26.5398C58.0377 26.5614 57.8153 26.5685 57.6073 26.5685C57.2486 26.5685 56.9259 26.5254 56.6174 26.4392C56.3161 26.3529 56.0436 26.2163 55.814 26.0222C55.5845 25.821 55.398 25.5622 55.2689 25.2315C55.1326 24.9009 55.068 24.4912 55.068 23.9952V12.9756ZM65.4977 20.2357C65.4977 19.5097 65.3184 19.0066 64.9526 18.7262C64.5867 18.4459 64.0559 18.3021 63.3601 18.3021C62.9369 18.3021 62.5352 18.338 62.1622 18.4027C61.7892 18.4746 61.4306 18.5609 61.0791 18.6687C60.8424 18.2662 60.7276 17.7846 60.7276 17.2239C61.1436 17.0873 61.6027 16.9795 62.0977 16.9076C62.5998 16.8357 63.0804 16.7998 63.5466 16.7998C64.7589 16.7998 65.6842 17.0801 66.3226 17.6336C66.9539 18.1943 67.2695 19.0856 67.2695 20.3076V26.202C66.8463 26.3026 66.3298 26.4032 65.7201 26.5039C65.1104 26.6117 64.4863 26.662 63.8551 26.662C63.2597 26.662 62.7146 26.6045 62.234 26.4967C61.7534 26.3888 61.3445 26.2091 61.0145 25.9647C60.6774 25.7203 60.4192 25.4041 60.2327 25.0303C60.0533 24.6493 59.9601 24.1893 59.9601 23.6501C59.9601 23.1254 60.0677 22.6582 60.2829 22.2628C60.4981 21.8675 60.785 21.5368 61.1508 21.2708C61.5166 21.0049 61.9327 20.8108 62.4133 20.6814C62.8867 20.552 63.3817 20.4873 63.9053 20.4873C64.2998 20.4873 64.6154 20.5017 64.8665 20.5161C65.1175 20.5376 65.3256 20.5592 65.4977 20.5808V20.2357ZM65.4977 22.0184C65.3184 21.9897 65.0817 21.9681 64.8019 21.9393C64.5222 21.9178 64.2855 21.9034 64.0918 21.9034C63.3386 21.9034 62.7576 22.0472 62.3631 22.3275C61.9686 22.6078 61.7677 23.0391 61.7677 23.6142C61.7677 23.9808 61.8394 24.2683 61.9686 24.4768C62.1048 24.6852 62.2698 24.8434 62.4778 24.9512C62.6787 25.0662 62.9011 25.1309 63.1378 25.1525C63.3817 25.1812 63.6184 25.1956 63.8336 25.1956C64.1133 25.1956 64.4074 25.174 64.7015 25.1453C65.0028 25.1165 65.2682 25.0734 65.4977 25.0087V22.0184ZM76.2431 24.8074C76.3363 24.98 76.4224 25.1956 76.4941 25.4472C76.573 25.706 76.6161 25.9719 76.6232 26.2379C75.9059 26.5182 75.081 26.662 74.1557 26.662C72.5991 26.662 71.4227 26.2163 70.6337 25.3322C69.8375 24.4408 69.4429 23.2476 69.4429 21.7381C69.4429 21.0408 69.5434 20.3939 69.737 19.7901C69.9307 19.1934 70.2248 18.6687 70.605 18.2302C70.9923 17.7917 71.4658 17.4395 72.0396 17.1807C72.6135 16.9292 73.2734 16.7998 74.0337 16.7998C74.543 16.7998 74.9949 16.8285 75.3823 16.8932C75.7696 16.9507 76.1426 17.0514 76.4941 17.1807C76.4941 17.3892 76.4726 17.6336 76.4152 17.9068C76.3578 18.1871 76.2861 18.4243 76.1857 18.6328C75.5903 18.4243 74.9089 18.3237 74.1413 18.3237C73.2017 18.3237 72.4987 18.6328 72.0396 19.2581C71.5734 19.8835 71.3438 20.7102 71.3438 21.7381C71.3438 22.9169 71.6092 23.7723 72.1329 24.3186C72.6565 24.8649 73.3738 25.1381 74.2848 25.1381C74.6506 25.1381 74.9878 25.1165 75.3034 25.0662C75.6118 25.0159 75.9274 24.9296 76.2431 24.8074ZM78.6532 12.9756C78.7895 12.9541 78.9401 12.9325 79.0979 12.9253C79.2629 12.9109 79.4136 12.9038 79.5499 12.9038C79.6861 12.9038 79.8368 12.9109 80.0089 12.9253C80.1739 12.9325 80.3317 12.9541 80.4608 12.9756V26.4392C80.3317 26.4679 80.1739 26.4823 80.0089 26.4967C79.8368 26.511 79.6861 26.5182 79.5499 26.5182C79.4136 26.5182 79.2629 26.511 79.0979 26.4967C78.9401 26.4823 78.7895 26.4679 78.6532 26.4392V12.9756ZM80.9558 21.5584L83.9326 17.0154C84.0904 16.9939 84.2482 16.9723 84.4061 16.9651C84.5639 16.9507 84.7288 16.9435 84.901 16.9435C85.0875 16.9435 85.2597 16.9507 85.4246 16.9651C85.5896 16.9723 85.7546 16.9939 85.9268 17.0154L82.9499 21.429L86.4361 26.4392C86.2639 26.4679 86.0989 26.4823 85.9411 26.4967C85.7833 26.511 85.6183 26.5182 85.4533 26.5182C85.2812 26.5182 85.109 26.511 84.9369 26.4967C84.7647 26.4823 84.5997 26.4679 84.4276 26.4392L80.9558 21.5584ZM92.5978 13.22C92.7771 13.1913 92.9923 13.1697 93.2433 13.141C93.4944 13.1194 93.7526 13.0978 94.0252 13.0763C94.305 13.0619 94.5775 13.0475 94.8501 13.0331C95.1227 13.0188 95.3881 13.0116 95.6463 13.0116C96.3134 13.0116 96.9518 13.0835 97.5544 13.22C98.1569 13.3494 98.6877 13.5866 99.1468 13.9173C99.5987 14.248 99.9645 14.6864 100.23 15.2256C100.503 15.7719 100.632 16.4547 100.632 17.2742C100.632 18.1296 100.488 18.8484 100.201 19.4163C99.9215 19.9841 99.5413 20.4442 99.0751 20.782C98.6016 21.1271 98.0708 21.3715 97.4755 21.508C96.8729 21.6518 96.2704 21.7237 95.6463 21.7237C95.4168 21.7237 95.2088 21.7165 95.0366 21.7093C94.8573 21.7093 94.6636 21.6878 94.4556 21.6662V26.4392C94.1687 26.4751 93.8531 26.4967 93.5231 26.4967C93.3796 26.4967 93.2218 26.4967 93.0568 26.4895C92.899 26.4823 92.7412 26.4679 92.5978 26.4392V13.22ZM94.4556 20.0345C94.6564 20.056 94.8214 20.0704 94.972 20.0848C95.1155 20.0992 95.3307 20.1063 95.6105 20.1063C95.9835 20.1063 96.3636 20.0632 96.7295 19.9841C97.1025 19.9051 97.4396 19.7613 97.7265 19.5529C98.0206 19.3444 98.2573 19.0641 98.4295 18.6975C98.6088 18.338 98.6949 17.8708 98.6949 17.2958C98.6949 16.7926 98.6232 16.3685 98.4654 16.0234C98.3147 15.6856 98.1067 15.4053 97.8413 15.1968C97.5687 14.9955 97.2459 14.8446 96.8729 14.7583C96.4928 14.6721 96.0839 14.6289 95.6463 14.6289C95.1944 14.6289 94.7999 14.6505 94.4556 14.6864V20.0345ZM103.773 22.1837C103.802 23.2117 104.068 23.9592 104.57 24.4408C105.079 24.9153 105.825 25.1525 106.808 25.1525C107.676 25.1525 108.493 25.0015 109.275 24.6996C109.376 24.8793 109.455 25.1022 109.512 25.3681C109.577 25.6269 109.612 25.8929 109.62 26.1444C109.218 26.317 108.78 26.4463 108.3 26.5326C107.819 26.6189 107.281 26.662 106.7 26.662C105.846 26.662 105.115 26.5398 104.505 26.3026C103.895 26.0654 103.393 25.7275 102.999 25.2962C102.604 24.8578 102.317 24.3474 102.131 23.7508C101.951 23.1541 101.858 22.5072 101.858 21.7956C101.858 21.0983 101.944 20.4442 102.124 19.8404C102.303 19.2294 102.568 18.7046 102.934 18.259C103.3 17.8133 103.759 17.4539 104.319 17.1951C104.871 16.9292 105.524 16.7998 106.277 16.7998C106.922 16.7998 107.489 16.9076 107.977 17.1304C108.465 17.3461 108.874 17.6552 109.204 18.0361C109.533 18.4243 109.785 18.8844 109.95 19.4163C110.122 19.9482 110.208 20.5305 110.208 21.1486C110.208 21.3212 110.201 21.5009 110.186 21.6949C110.179 21.8818 110.165 22.0472 110.15 22.1837H103.773ZM108.414 20.818C108.414 20.4801 108.371 20.1495 108.278 19.8404C108.192 19.5241 108.056 19.2509 107.876 19.0209C107.704 18.7909 107.475 18.604 107.202 18.4602C106.93 18.3165 106.6 18.2518 106.227 18.2518C105.481 18.2518 104.914 18.4746 104.519 18.9275C104.118 19.3803 103.881 20.0129 103.795 20.818H108.414ZM117.532 20.2357C117.532 19.5097 117.352 19.0066 116.986 18.7262C116.621 18.4459 116.09 18.3021 115.394 18.3021C114.971 18.3021 114.569 18.338 114.203 18.4027C113.83 18.4746 113.464 18.5609 113.113 18.6687C112.883 18.2662 112.769 17.7846 112.769 17.2239C113.177 17.0873 113.636 16.9795 114.139 16.9076C114.634 16.8357 115.114 16.7998 115.58 16.7998C116.8 16.7998 117.725 17.0801 118.356 17.6336C118.988 18.1943 119.303 19.0856 119.303 20.3076V26.202C118.88 26.3026 118.364 26.4032 117.754 26.5039C117.144 26.6117 116.52 26.662 115.889 26.662C115.293 26.662 114.756 26.6045 114.275 26.4967C113.794 26.3888 113.385 26.2091 113.048 25.9647C112.711 25.7203 112.453 25.4041 112.274 25.0303C112.087 24.6493 112.001 24.1893 112.001 23.6501C112.001 23.1254 112.101 22.6582 112.317 22.2628C112.532 21.8675 112.819 21.5368 113.185 21.2708C113.55 21.0049 113.974 20.8108 114.447 20.6814C114.92 20.552 115.423 20.4873 115.946 20.4873C116.334 20.4873 116.656 20.5017 116.907 20.5161C117.151 20.5376 117.367 20.5592 117.532 20.5808V20.2357ZM117.532 22.0184C117.352 21.9897 117.123 21.9681 116.843 21.9393C116.563 21.9178 116.319 21.9034 116.126 21.9034C115.372 21.9034 114.799 22.0472 114.404 22.3275C114.002 22.6078 113.809 23.0391 113.809 23.6142C113.809 23.9808 113.873 24.2683 114.01 24.4768C114.139 24.6852 114.311 24.8434 114.512 24.9512C114.712 25.0662 114.935 25.1309 115.179 25.1525C115.423 25.1812 115.652 25.1956 115.875 25.1956C116.154 25.1956 116.441 25.174 116.742 25.1453C117.037 25.1165 117.302 25.0734 117.532 25.0087V22.0184ZM122.029 17.0154C122.165 16.9939 122.294 16.9723 122.416 16.9651C122.531 16.9507 122.66 16.9435 122.797 16.9435C122.933 16.9435 123.062 16.9507 123.198 16.9651C123.335 16.9723 123.456 16.9939 123.564 17.0154C123.6 17.2023 123.636 17.4467 123.672 17.7414C123.708 18.0433 123.729 18.2949 123.729 18.5034C123.987 18.0936 124.324 17.727 124.74 17.4251C125.164 17.1161 125.702 16.9651 126.362 16.9651C126.455 16.9651 126.555 16.9651 126.663 16.9723C126.763 16.9795 126.849 16.9867 126.928 17.001C126.95 17.1089 126.971 17.2239 126.979 17.3461C126.993 17.4683 127 17.5977 127 17.7342C127 17.8852 126.993 18.0361 126.971 18.1943C126.95 18.3524 126.935 18.5034 126.907 18.6543C126.814 18.6256 126.713 18.6184 126.605 18.6184H126.362C126.032 18.6184 125.716 18.6615 125.422 18.755C125.121 18.8484 124.855 19.0065 124.611 19.2438C124.375 19.4738 124.188 19.7901 124.045 20.1998C123.908 20.6023 123.837 21.1199 123.837 21.7596V26.4392C123.708 26.4679 123.557 26.4823 123.392 26.4967C123.227 26.511 123.076 26.5182 122.94 26.5182C122.811 26.5182 122.66 26.511 122.495 26.4967C122.33 26.4823 122.173 26.4679 122.029 26.4392V17.0154ZM44.0501 46.2067C44.4518 46.3577 44.8678 46.4871 45.3054 46.5949C45.7501 46.7027 46.281 46.7602 46.9194 46.7602C47.9164 46.7602 48.6624 46.559 49.1574 46.142C49.6451 45.7323 49.8962 45.1788 49.8962 44.4816C49.8962 44.1365 49.846 43.849 49.7384 43.6046C49.638 43.353 49.4802 43.1446 49.2721 42.9649C49.0641 42.7923 48.8059 42.627 48.4974 42.4832C48.189 42.3323 47.8232 42.1742 47.4071 42.0016L46.367 41.5775C46.0155 41.4338 45.6928 41.2684 45.3987 41.0959C45.1046 40.9162 44.8535 40.7006 44.6383 40.4418C44.4303 40.183 44.2581 39.8883 44.1362 39.5505C44.0142 39.2126 43.9569 38.8101 43.9569 38.35C43.9569 37.2359 44.337 36.3589 45.0902 35.7335C45.8434 35.101 46.905 34.7847 48.2679 34.7847C48.8561 34.7847 49.4084 34.835 49.9321 34.9284C50.4557 35.0291 50.9148 35.1513 51.3165 35.3022C51.2591 35.8126 51.1228 36.323 50.9148 36.8261C50.592 36.7039 50.2118 36.5889 49.7743 36.4955C49.3439 36.3948 48.8561 36.3445 48.3038 36.3445C47.5362 36.3445 46.9481 36.5027 46.532 36.8118C46.116 37.128 45.9151 37.5953 45.9151 38.2206C45.9151 38.4794 45.9653 38.7094 46.0658 38.9107C46.1734 39.112 46.3096 39.2845 46.4746 39.4426C46.6468 39.5936 46.8476 39.7302 47.0843 39.8524C47.3139 39.9746 47.5578 40.0896 47.8088 40.183L48.8346 40.5856C49.3224 40.7868 49.7527 40.9881 50.1329 41.2037C50.5131 41.4194 50.8359 41.671 51.1013 41.9585C51.3667 42.246 51.5747 42.5839 51.711 42.9792C51.8545 43.3674 51.9262 43.8274 51.9262 44.3522C51.9262 45.6173 51.4886 46.6093 50.6279 47.3425C49.7599 48.0685 48.5477 48.4351 46.9911 48.4351C46.6109 48.4351 46.2738 48.4207 45.9653 48.392C45.6641 48.3704 45.3771 48.3345 45.1189 48.2841C44.8535 48.2338 44.6024 48.1763 44.3586 48.1044C44.1147 48.0254 43.8636 47.9463 43.6125 47.86C43.6341 47.5941 43.6915 47.3209 43.7704 47.0334C43.8564 46.753 43.9497 46.4799 44.0501 46.2067ZM57.9875 48.4351C57.2558 48.4351 56.6174 48.3057 56.0722 48.0541C55.5199 47.8025 55.068 47.4575 54.7022 47.019C54.3364 46.5805 54.0638 46.0558 53.8845 45.4592C53.7123 44.8554 53.619 44.2084 53.619 43.5112C53.619 42.8139 53.7123 42.1598 53.8845 41.5632C54.0638 40.9593 54.3364 40.4418 54.7022 40.0033C55.068 39.5576 55.5199 39.2126 56.0722 38.9538C56.6174 38.6951 57.2558 38.5657 57.9875 38.5657C58.7191 38.5657 59.3575 38.6951 59.9099 38.9538C60.455 39.2126 60.9141 39.5576 61.2799 40.0033C61.6458 40.4418 61.9112 40.9593 62.0905 41.5632C62.2698 42.1598 62.3559 42.8139 62.3559 43.5112C62.3559 44.2084 62.2698 44.8554 62.0905 45.4592C61.9112 46.0558 61.6458 46.5805 61.2799 47.019C60.9141 47.4575 60.455 47.8025 59.9099 48.0541C59.3575 48.3057 58.7191 48.4351 57.9875 48.4351ZM57.9875 46.9831C58.8267 46.9831 59.4508 46.674 59.8525 46.063C60.2542 45.452 60.455 44.5966 60.455 43.5112C60.455 42.4186 60.2542 41.5703 59.8525 40.9665C59.4508 40.3627 58.8267 40.0536 57.9875 40.0536C57.1482 40.0536 56.5313 40.3627 56.1368 40.9665C55.7351 41.5703 55.5414 42.4186 55.5414 43.5112C55.5414 44.5966 55.7351 45.452 56.1368 46.063C56.5313 46.674 57.1482 46.9831 57.9875 46.9831ZM65.2825 40.219H63.7475C63.6973 40.0249 63.6686 39.7877 63.6686 39.5073C63.6686 39.2342 63.6973 38.997 63.7475 38.7885H65.2825V38.1272C65.2825 36.9627 65.5695 36.0786 66.1505 35.4747C66.7243 34.8637 67.5708 34.5618 68.6754 34.5618C68.9839 34.5618 69.2493 34.5762 69.4788 34.6122C69.7155 34.6409 69.9307 34.684 70.1387 34.7487C70.1172 35.0506 70.0813 35.3166 70.0383 35.5394C69.9953 35.7551 69.9379 35.9851 69.8662 36.2151C69.7442 36.1936 69.6007 36.1648 69.4358 36.1361C69.2708 36.1073 69.0699 36.0857 68.8404 36.0857C68.575 36.0857 68.3311 36.1145 68.1231 36.172C67.9079 36.2295 67.7214 36.3301 67.5708 36.4811C67.4201 36.6392 67.2982 36.8477 67.2193 37.128C67.1332 37.4012 67.0902 37.7534 67.0902 38.1847V38.7885H69.4788C69.5147 39.0329 69.5362 39.2845 69.5362 39.5433C69.5362 39.7733 69.5147 40.0033 69.4788 40.219H67.0902V48.2123C66.9539 48.2338 66.8032 48.2554 66.6383 48.2698C66.4733 48.277 66.3298 48.2841 66.1935 48.2841C66.0572 48.2841 65.9066 48.277 65.7344 48.2698C65.5623 48.2554 65.4116 48.2338 65.2825 48.2123V40.219ZM71.7455 40.2405H70.3252L70.2463 39.9817L73.3882 36.4595H73.5388V38.7885H75.9131C75.9633 38.997 75.9848 39.227 75.9848 39.4858C75.9848 39.6223 75.9776 39.7517 75.9705 39.8739C75.9561 39.9961 75.9346 40.1183 75.9131 40.2405H73.5388V44.5391C73.5388 45.0494 73.5603 45.4592 73.6033 45.7683C73.6464 46.0774 73.7181 46.3074 73.8185 46.4727C73.9261 46.638 74.0624 46.753 74.2418 46.8034C74.4211 46.8609 74.6434 46.8896 74.9089 46.8896C75.1169 46.8896 75.3105 46.8752 75.4899 46.8465C75.6764 46.8106 75.8414 46.7818 75.9848 46.7387C76.0709 46.9903 76.1211 47.2347 76.1426 47.4934C76.157 47.7522 76.1713 47.9822 76.1713 48.1763C75.9274 48.2338 75.6692 48.2841 75.4038 48.3129C75.1312 48.3416 74.8443 48.356 74.543 48.356C73.6679 48.356 72.9793 48.1476 72.4843 47.7163C71.9966 47.285 71.7455 46.5805 71.7455 45.5886V40.2405ZM76.8815 38.7885C77.0536 38.7669 77.2258 38.7454 77.3908 38.731C77.5629 38.7238 77.7135 38.7166 77.8498 38.7166C78.022 38.7166 78.1941 38.7238 78.3735 38.731C78.5456 38.7454 78.7034 38.7669 78.8397 38.7885L80.6617 46.4871L82.7276 38.7885C82.8638 38.7669 83.0073 38.7454 83.1651 38.731C83.3229 38.7238 83.4879 38.7166 83.6601 38.7166C83.8537 38.731 84.0187 38.7382 84.1622 38.7454C84.3056 38.7454 84.4419 38.7669 84.571 38.7885L86.6226 46.3577L88.4445 38.7885C88.5808 38.7669 88.7171 38.7454 88.8462 38.731C88.9825 38.7238 89.126 38.7166 89.2838 38.7166C89.4201 38.7166 89.5707 38.7238 89.7357 38.731C89.9007 38.7454 90.0656 38.7669 90.2378 38.7885L87.4403 48.2123C87.2825 48.2338 87.1247 48.2554 86.9597 48.2698C86.7947 48.277 86.6441 48.2841 86.5078 48.2841C86.3787 48.2841 86.228 48.277 86.0702 48.2698C85.9124 48.2554 85.7546 48.2338 85.5968 48.2123L83.5883 41.0815L81.4866 48.2123C81.3144 48.2338 81.1495 48.2554 80.9845 48.2698C80.8195 48.277 80.6689 48.2841 80.5326 48.2841C80.4035 48.2841 80.2528 48.277 80.0878 48.2698C79.9229 48.2554 79.7722 48.2338 79.6431 48.2123L76.8815 38.7885ZM97.0523 42.0016C97.0523 41.2828 96.8729 40.7796 96.5071 40.4993C96.1413 40.2118 95.6105 40.0752 94.9147 40.0752C94.4915 40.0752 94.0898 40.1111 93.7168 40.1758C93.3438 40.2405 92.9851 40.334 92.6336 40.4418C92.3969 40.0393 92.2821 39.5576 92.2821 38.9898C92.6982 38.8532 93.1573 38.7526 93.6522 38.6807C94.1543 38.6016 94.6349 38.5657 95.094 38.5657C96.3134 38.5657 97.2388 38.846 97.8772 39.4067C98.5084 39.9602 98.824 40.8515 98.824 42.0735V47.975C98.4008 48.0685 97.8843 48.1691 97.2746 48.2769C96.6649 48.3776 96.0408 48.4351 95.4096 48.4351C94.8142 48.4351 94.2691 48.3776 93.7885 48.2698C93.3079 48.1548 92.899 47.9822 92.5691 47.7306C92.2319 47.4862 91.9737 47.1772 91.7872 46.7962C91.6079 46.4152 91.5146 45.9552 91.5146 45.4232C91.5146 44.8913 91.6222 44.4313 91.8374 44.0359C92.0526 43.6334 92.3395 43.3027 92.7054 43.0439C93.0712 42.778 93.4872 42.5839 93.9678 42.4545C94.4412 42.3251 94.9362 42.2604 95.4598 42.2604C95.8543 42.2604 96.17 42.2676 96.421 42.2892C96.6721 42.3035 96.8801 42.3251 97.0523 42.3539V42.0016ZM97.0523 43.7843C96.8729 43.7627 96.6362 43.734 96.3565 43.7124C96.0767 43.6837 95.84 43.6765 95.6463 43.6765C94.8931 43.6765 94.3121 43.8131 93.9176 44.1006C93.5231 44.3809 93.3222 44.805 93.3222 45.3801C93.3222 45.7539 93.394 46.0414 93.5231 46.2499C93.6594 46.4511 93.8244 46.6165 94.0252 46.7243C94.2332 46.8321 94.4484 46.904 94.6923 46.9256C94.9362 46.9471 95.1729 46.9615 95.3881 46.9615C95.6678 46.9615 95.9619 46.9471 96.256 46.9184C96.5573 46.8896 96.8227 46.8393 97.0523 46.7818V43.7843ZM101.55 38.7885C101.679 38.7669 101.808 38.7454 101.93 38.731C102.052 38.7238 102.181 38.7166 102.317 38.7166C102.446 38.7166 102.583 38.7238 102.719 38.731C102.848 38.7454 102.97 38.7669 103.085 38.7885C103.121 38.9754 103.157 39.2126 103.192 39.5145C103.228 39.8164 103.25 40.068 103.25 40.2765C103.501 39.8596 103.838 39.5001 104.261 39.191C104.677 38.8891 105.222 38.731 105.875 38.731C105.976 38.731 106.076 38.7382 106.176 38.7454C106.284 38.7454 106.37 38.7598 106.442 38.7669C106.471 38.882 106.485 38.997 106.499 39.1192C106.514 39.2414 106.514 39.3708 106.514 39.5073C106.514 39.6511 106.506 39.802 106.492 39.9674C106.471 40.1255 106.449 40.2765 106.428 40.4202C106.327 40.3987 106.227 40.3843 106.126 40.3843H105.875C105.545 40.3843 105.237 40.4346 104.936 40.5281C104.641 40.6143 104.369 40.7796 104.132 41.0097C103.895 41.2469 103.709 41.5632 103.565 41.9657C103.429 42.3682 103.357 42.893 103.357 43.5255V48.2123C103.221 48.2338 103.071 48.2554 102.906 48.2698C102.741 48.277 102.597 48.2841 102.461 48.2841C102.324 48.2841 102.181 48.277 102.016 48.2698C101.851 48.2554 101.693 48.2338 101.55 48.2123V38.7885ZM109.419 43.9496C109.447 44.9776 109.713 45.7323 110.215 46.2067C110.724 46.6884 111.47 46.9256 112.453 46.9256C113.321 46.9256 114.139 46.7746 114.92 46.4655C115.021 46.6524 115.1 46.8752 115.157 47.134C115.222 47.4 115.258 47.6588 115.272 47.9175C114.87 48.09 114.426 48.2194 113.945 48.3057C113.464 48.392 112.934 48.4351 112.345 48.4351C111.492 48.4351 110.76 48.3129 110.15 48.0757C109.541 47.8385 109.039 47.5006 108.644 47.0621C108.249 46.6308 107.963 46.1133 107.776 45.5239C107.597 44.9272 107.503 44.2731 107.503 43.5615C107.503 42.8642 107.59 42.2173 107.769 41.6063C107.948 41.0025 108.214 40.4777 108.579 40.0321C108.945 39.5792 109.404 39.227 109.964 38.961C110.516 38.7022 111.169 38.5657 111.922 38.5657C112.568 38.5657 113.134 38.6807 113.622 38.8963C114.11 39.1192 114.519 39.4211 114.849 39.8092C115.179 40.1974 115.43 40.6503 115.595 41.1894C115.767 41.7213 115.853 42.2964 115.853 42.9217C115.853 43.0942 115.846 43.274 115.839 43.4608C115.824 43.6549 115.81 43.8131 115.796 43.9496H109.419ZM114.06 42.5911C114.06 42.246 114.017 41.9226 113.923 41.6063C113.837 41.2972 113.701 41.024 113.522 40.794C113.35 40.5568 113.12 40.3699 112.847 40.2333C112.575 40.0896 112.245 40.0177 111.872 40.0177C111.126 40.0177 110.559 40.2477 110.165 40.7006C109.763 41.1534 109.526 41.786 109.44 42.5911H114.06Z" fill="black"></path><path d="M23.3198 59.749C19.8408 61.2585 15.2572 61.0213 14.5471 60.935C13.8369 60.8559 0 60.2665 0 44.3446C0 37.7099 5.70263 34.6837 7.00813 29.997C8.77272 23.657 8.73685 14.2835 13.88 13.4713C13.8298 12.9178 13.7652 11.9474 13.0694 10.3516C12.6319 9.32366 11.8069 8.15917 11.0466 7.21752C9.08834 4.80947 6.27648 2.60269 6.22626 2.56675C5.86044 2.2289 6.79294 0.661869 7.8976 1.06441C7.93347 1.10035 10.4727 3.68092 11.9863 5.72956C13.4998 7.7782 14.5686 9.84121 14.8842 11.092C15.1927 12.3427 15.1927 12.6374 15.1927 13.4569C19.1092 14.0751 21.4691 21.8527 22.3012 23.9445C23.1692 26.1297 25.3498 32.06 25.773 32.9369C27.2148 35.9129 30.909 38.6228 31.3035 42.677C31.698 47.1193 31.1744 56.3418 23.3198 59.749Z" fill="black"></path><path d="M23.3198 59.749C19.8408 61.2585 15.2572 61.0213 14.5471 60.935C13.8369 60.8559 0 60.2665 0 44.3446C0 37.7099 5.70263 34.6837 7.00813 29.997C8.77272 23.657 8.73685 14.2835 13.88 13.4713C13.8298 12.9178 13.7652 11.9474 13.0694 10.3516C12.6319 9.32366 11.8069 8.15917 11.0466 7.21752C9.08834 4.80947 6.27648 2.60269 6.22626 2.56675C5.86044 2.2289 6.79294 0.661869 7.8976 1.06441C7.93347 1.10035 10.4727 3.68092 11.9863 5.72956C13.4998 7.7782 14.5686 9.84121 14.8842 11.092C15.1927 12.3427 15.1927 12.6374 15.1927 13.4569C19.1092 14.0751 21.4691 21.8527 22.3012 23.9445C23.1692 26.1297 25.3498 32.06 25.773 32.9369C27.2148 35.9129 30.909 38.6228 31.3035 42.677C31.698 47.1193 31.1744 56.3418 23.3198 59.749Z" fill="black"></path><path d="M23.3198 59.749C19.8408 61.2585 15.2572 61.0213 14.5471 60.935C13.8369 60.8559 0 60.2665 0 44.3446C0 37.7099 5.70263 34.6837 7.00813 29.997C8.77272 23.657 8.73685 14.2835 13.88 13.4713C13.8298 12.9178 13.7652 11.9474 13.0694 10.3516C12.6319 9.32366 11.8069 8.15917 11.0466 7.21752C9.08834 4.80947 6.27648 2.60269 6.22626 2.56675C5.86044 2.2289 6.79294 0.661869 7.8976 1.06441C7.93347 1.10035 10.4727 3.68092 11.9863 5.72956C13.4998 7.7782 14.5686 9.84121 14.8842 11.092C15.1927 12.3427 15.1927 12.6374 15.1927 13.4569C19.1092 14.0751 21.4691 21.8527 22.3012 23.9445C23.1692 26.1297 25.3498 32.06 25.773 32.9369C27.2148 35.9129 30.909 38.6228 31.3035 42.677C31.698 47.1193 31.1744 56.3418 23.3198 59.749Z" fill="black"></path><path fill-rule="evenodd" clip-rule="evenodd" d="M7.22334 1.89861C7.38833 1.80516 7.69677 1.82672 7.55331 1.5392C7.40985 1.25167 7.08706 1.23729 6.88621 1.50325C6.68536 1.76922 6.67101 2.04237 6.82165 2.12144C6.97946 2.20051 7.06554 1.99924 7.22334 1.89861Z" fill="white"></path><path fill-rule="evenodd" clip-rule="evenodd" d="M14.3175 13.5507C14.2171 13.4573 13.8513 13.5651 13.5356 13.7376C13.22 13.9173 12.1799 14.3773 11.7639 14.9308C11.355 15.4771 10.4512 16.2319 9.61194 20.322C10.2934 17.9858 11.1757 15.7215 12.5457 14.8877C13.923 14.0611 13.9302 14.3486 14.0951 14.1186C14.2601 13.8957 14.4179 13.6513 14.3175 13.5507Z" fill="url(#paint0_linear)"></path><path fill-rule="evenodd" clip-rule="evenodd" d="M7.84738 29.3001C7.15158 31.3415 5.37983 33.8143 4.37559 35.065C3.37135 36.3158 1.34854 39.1407 1.08313 41.405C2.12323 38.501 3.84478 36.4523 4.67686 35.3382C5.51612 34.224 7.35243 32.1538 7.84738 29.3001Z" fill="url(#paint1_radial)"></path><defs><linearGradient id="paint0_linear" x1="18.0984" y1="-14.8752" x2="-119.35" y2="698.002" gradientUnits="userSpaceOnUse"><stop stop-color="white"></stop><stop offset="1"></stop></linearGradient><radialGradient id="paint1_radial" cx="0" cy="0" r="1" gradientUnits="userSpaceOnUse" gradientTransform="translate(317.674 582.903) scale(740.193 741.751)"><stop stop-color="white"></stop><stop offset="1"></stop></radialGradient></defs></svg> 